<svg width="37" height="35" viewBox="0 0 37 35" fill="none" xmlns="http://www.w3.org/2000/svg">
<path d="M7.25 9H31.3825C31.8715 9.00002 32.355 9.1025 32.802 9.30083C33.249 9.49917 33.6494 9.78896 33.9775 10.1515C34.3056 10.5141 34.5541 10.9414 34.707 11.4059C34.8598 11.8703 34.9137 12.3617 34.865 12.8483L33.815 23.3483C33.7286 24.2119 33.3245 25.0126 32.6809 25.595C32.0374 26.1774 31.2004 26.5 30.3325 26.5H13.62C12.8106 26.5003 12.0261 26.2201 11.4 25.707C10.774 25.1939 10.3451 24.4797 10.1865 23.686L7.25 9Z" stroke="white" stroke-width="3" stroke-linejoin="round"/>
<path d="M7.25 9L5.8325 3.32475C5.7377 2.94632 5.51917 2.61042 5.21161 2.3704C4.90406 2.13038 4.52513 2.00001 4.135 2H2M12.5 33.5H16M26.5 33.5H30" stroke="white" stroke-width="3" stroke-linecap="round" stroke-linejoin="round"/>
</svg>
