<svg width="565" height="203" viewBox="0 0 565 203" fill="none" xmlns="http://www.w3.org/2000/svg">
<path d="M125.535 197V0.710938H180.32V197H125.535ZM0.4375 197V0.710938H55.2227V197H0.4375ZM49.3633 126.688V78.3477H133.738V126.688H49.3633ZM296.336 201.395C285.789 201.395 275.535 199.637 265.574 196.121C255.809 192.605 247.02 187.527 239.207 180.887C231.395 174.246 225.242 166.238 220.75 156.863C216.258 147.293 214.012 136.551 214.012 124.637C214.012 109.793 217.43 96.2188 224.266 83.9141C231.297 71.6094 240.77 61.7461 252.684 54.3242C264.793 46.9023 278.367 43.1914 293.406 43.1914C307.469 43.1914 319.969 46.3164 330.906 52.5664C341.844 58.8164 350.34 67.6055 356.395 78.9336C362.645 90.0664 365.77 103.348 365.77 118.777V136.062H260.008V105.594H318.016C318.016 100.906 316.746 97 314.207 93.875C311.668 90.75 308.445 88.5039 304.539 87.1367C300.633 85.5742 296.434 84.793 291.941 84.793C286.082 84.793 280.906 86.2578 276.414 89.1875C272.117 91.9219 268.699 96.2188 266.16 102.078C263.621 107.938 262.352 115.457 262.352 124.637C262.352 132.059 263.914 138.211 267.039 143.094C270.359 147.977 274.852 151.59 280.516 153.934C286.18 156.277 292.43 157.449 299.266 157.449C310.594 157.449 320.359 155.887 328.562 152.762C336.961 149.441 343.211 146.609 347.312 144.266V187.332C343.992 189.48 339.695 191.629 334.422 193.777C329.344 195.926 323.582 197.684 317.137 199.051C310.691 200.613 303.758 201.395 296.336 201.395ZM393.602 197V47.5859H443.992V197H393.602ZM443.992 120.242V74.2461C448.68 66.2383 453.855 59.3047 459.52 53.4453C465.379 47.5859 472.996 44.6562 482.371 44.6562C487.449 44.6562 491.844 45.5352 495.555 47.293V102.957C492.625 101.395 489.5 100.223 486.18 99.4414C483.055 98.4648 479.344 97.9766 475.047 97.9766C468.211 97.9766 462.156 100.027 456.883 104.129C451.609 108.23 447.312 113.602 443.992 120.242ZM538.328 202.566C531.102 202.566 524.852 200.027 519.578 194.949C514.5 189.676 511.961 183.426 511.961 176.199C511.961 168.777 514.5 162.527 519.578 157.449C524.852 152.371 531.102 149.832 538.328 149.832C545.555 149.832 551.707 152.371 556.785 157.449C562.059 162.527 564.695 168.777 564.695 176.199C564.695 183.426 562.059 189.676 556.785 194.949C551.707 200.027 545.555 202.566 538.328 202.566Z" fill="#F29374"/>
</svg>
