<svg width="95" height="34" viewBox="0 0 95 34" fill="none" xmlns="http://www.w3.org/2000/svg">
<path d="M20.9023 33V0.285156H30.0332V33H20.9023ZM0.0527344 33V0.285156H9.18359V33H0.0527344ZM8.20703 21.2812V13.2246H22.2695V21.2812H8.20703ZM49.3691 33.7324C47.6113 33.7324 45.9023 33.4395 44.2422 32.8535C42.6146 32.2676 41.1497 31.4212 39.8477 30.3145C38.5456 29.2077 37.5202 27.873 36.7715 26.3105C36.0228 24.7155 35.6484 22.9251 35.6484 20.9395C35.6484 18.4655 36.2181 16.2031 37.3574 14.1523C38.5293 12.1016 40.1081 10.4577 42.0938 9.2207C44.112 7.98372 46.3743 7.36523 48.8809 7.36523C51.2246 7.36523 53.3079 7.88607 55.1309 8.92773C56.9538 9.9694 58.3698 11.4342 59.3789 13.3223C60.4206 15.1777 60.9414 17.3913 60.9414 19.9629V22.8438H43.3145V17.7656H52.9824C52.9824 16.9844 52.7708 16.3333 52.3477 15.8125C51.9245 15.2917 51.3874 14.9173 50.7363 14.6895C50.0853 14.429 49.3854 14.2988 48.6367 14.2988C47.6602 14.2988 46.7975 14.543 46.0488 15.0312C45.3327 15.487 44.763 16.2031 44.3398 17.1797C43.9167 18.1562 43.7051 19.4095 43.7051 20.9395C43.7051 22.1764 43.9655 23.2018 44.4863 24.0156C45.0397 24.8294 45.7884 25.4316 46.7324 25.8223C47.6764 26.2129 48.7181 26.4082 49.8574 26.4082C51.7454 26.4082 53.373 26.1478 54.7402 25.627C56.14 25.0736 57.1816 24.6016 57.8652 24.2109V31.3887C57.3118 31.7467 56.5957 32.1048 55.7168 32.4629C54.8704 32.821 53.9102 33.1139 52.8359 33.3418C51.7617 33.6022 50.6061 33.7324 49.3691 33.7324ZM65.5801 33V8.09766H73.9785V33H65.5801ZM73.9785 20.207V12.541C74.7598 11.2064 75.6224 10.0508 76.5664 9.07422C77.543 8.09766 78.8125 7.60938 80.375 7.60938C81.2214 7.60938 81.9538 7.75586 82.5723 8.04883V17.3262C82.084 17.0658 81.5632 16.8704 81.0098 16.7402C80.4889 16.5775 79.8704 16.4961 79.1543 16.4961C78.015 16.4961 77.0059 16.8379 76.127 17.5215C75.248 18.2051 74.5319 19.1003 73.9785 20.207ZM89.7012 33.9277C88.4967 33.9277 87.4551 33.5046 86.5762 32.6582C85.7298 31.7793 85.3066 30.7376 85.3066 29.5332C85.3066 28.2962 85.7298 27.2546 86.5762 26.4082C87.4551 25.5618 88.4967 25.1387 89.7012 25.1387C90.9056 25.1387 91.931 25.5618 92.7773 26.4082C93.6562 27.2546 94.0957 28.2962 94.0957 29.5332C94.0957 30.7376 93.6562 31.7793 92.7773 32.6582C91.931 33.5046 90.9056 33.9277 89.7012 33.9277Z" fill="white"/>
</svg>
