<svg width="22" height="22" viewBox="0 0 22 22" fill="none" xmlns="http://www.w3.org/2000/svg">
<path d="M20.75 20.75L16.0451 16.0451M16.0451 16.0451C16.8499 15.2403 17.4883 14.2849 17.9238 13.2333C18.3594 12.1818 18.5835 11.0548 18.5835 9.91667C18.5835 8.77851 18.3594 7.65151 17.9238 6.59999C17.4883 5.54847 16.8499 4.59304 16.0451 3.78825C15.2403 2.98345 14.2848 2.34505 13.2333 1.9095C12.1818 1.47395 11.0548 1.24977 9.91665 1.24977C8.77849 1.24977 7.65149 1.47395 6.59997 1.9095C5.54846 2.34505 4.59302 2.98345 3.78823 3.78825C2.16287 5.41361 1.24976 7.61806 1.24976 9.91667C1.24976 12.2153 2.16287 14.4197 3.78823 16.0451C5.41359 17.6704 7.61804 18.5836 9.91665 18.5836C12.2152 18.5836 14.4197 17.6704 16.0451 16.0451Z" stroke="white" stroke-width="2.5" stroke-linecap="round" stroke-linejoin="round"/>
</svg>
